<?xml version="1.0" encoding="utf-8"?>
<svg version="1.1" id="layer_1" xmlns="http://www.w3.org/2000/svg" xmlns:xlink="http://www.w3.org/1999/xlink" x="0px" y="0px"
	viewBox="0 0 687.5 210" style="enable-background:new 0 0 687.5 210;" xml:space="preserve">
<style type="text/css">
	.st0{fill:#0052CC;}
	.st1{fill:#2793FF;}
</style>
<path class="st0" d="M105,0C47,0,0,47,0,105s47,105,105,105s105-47,105-105S163,0,105,0z M105,144.4c-21.8,0-39.4-17.6-39.4-39.4
	S83.2,65.6,105,65.6s39.4,17.6,39.4,39.4l0,0C144.4,126.7,126.7,144.4,105,144.4z"/>
<path class="st1" d="M189.9,141L189.9,141l-36.4-15.1c5.3-12.9,5.3-27.3,0-40.2l25-10.4l11.3-4.7c4.6,11.2,7,23.1,7,35.2
	C196.8,117.8,194.5,129.8,189.9,141z"/>
<path class="st1" d="M140.2,20.1L140.2,20.1l-15.1,36.4c-12.9-5.3-27.3-5.3-40.2,0l-7.1-17.1l-8-19.3
	C92.3,10.8,117.6,10.8,140.2,20.1L140.2,20.1z"/>
<path class="st1" d="M20.1,69.8l19.3,8l17.1,7.1c-5.3,12.9-5.3,27.3,0,40.2l-36.4,15.2C10.7,117.7,10.7,92.4,20.1,69.8L20.1,69.8z"
	/>
<path class="st1" d="M69.8,189.9l4.7-11.3l10.4-25c12.9,5.3,27.3,5.3,40.2,0l15.1,36.4l0,0c-11.2,4.6-23.1,7-35.2,7
	C92.9,197,81,194.6,69.8,189.9z"/>
<g>
	<path d="M328.2,54c8,5.9,12.6,15.2,13.8,27.7h-18.6c-1.6-7-4.6-12.2-8.8-15.2c-4.2-3.2-10.6-4.6-18.9-4.6c-7.2,0-12.6,1-16.5,3
		c-4.8,2.4-7,6.4-7,11.8c0,4.8,2.6,8.8,8,11.7c2.4,1.3,9,3.7,19.5,7c15.5,4.8,25.4,8.6,29.9,11.2c9.9,5.9,14.9,14.1,14.9,24.6
		c0,10.2-4,18.4-12,24.3c-8,5.8-19.4,8.8-33.9,8.8c-14.1,0-25.1-2.7-33-8.2c-9.6-6.7-14.9-17.3-15.7-31.8h18.6
		c1.3,8.6,4.3,14.9,9.3,18.6c4.5,3.2,11.4,5,20.8,5c8.3,0,15-1.4,19.8-4.2c4.8-2.9,7.4-6.6,7.4-11.4c0-6.1-3.7-10.9-10.7-14.4
		c-2.2-1.1-9.6-3.7-22.2-7.5c-14.1-4.5-22.9-7.7-26.2-9.6c-8.8-5.3-13.1-13-13.1-23c0-10.1,4.2-18.1,12.8-23.8
		c8-5.6,18.1-8.3,30.4-8.3C310.2,45.6,320.7,48.4,328.2,54z"/>
	<path d="M437.5,47.9v114.2h-18.2V63.2H394c-2.4,0-4.2,0.6-5.4,1.9c-1.3,1.3-1.8,3.2-1.8,5.9v8.3h21.1v14.9h-21.1v67.8h-18.2V94.3
		h-18.4V79.4h18.4v-8.8c0-7,1.9-12.6,5.9-16.6c3.8-4.2,9.6-6.1,17-6.1H437.5z"/>
	<path d="M527,89.5c7.5,8.2,11.4,18.6,11.4,31.4c0,12.6-3.8,23-11.2,31c-7.7,8.3-17.9,12.5-30.4,12.5c-12.6,0-22.7-4.2-30.4-12.5
		c-7.5-8-11.2-18.4-11.2-31c0-12.8,3.7-23.2,11.4-31.4c7.5-8.3,17.6-12.3,30.2-12.3C509.2,77.2,519.3,81.2,527,89.5z M479.1,101
		c-3.5,5.1-5.3,11.8-5.3,19.8s1.8,14.6,5.3,19.7c4.2,5.9,9.9,9,17.6,9c7.5,0,13.4-3,17.6-9c3.5-5.3,5.4-11.8,5.4-19.7
		c0-8-1.9-14.7-5.4-19.8c-4.2-6.1-10.1-9-17.6-9C489,92,483.3,94.9,479.1,101z"/>
	<path d="M565.7,79.4l16.5,61.1l16.3-61.1h16.8l16.3,61.1l16.5-61.1h20.2l-27.8,82.7h-17L607,101.6l-16.6,60.5h-17l-27.8-82.7H565.7
		z"/>
</g>
</svg>
