<?xml version="1.0" encoding="utf-8"?>
<!-- Generator: Adobe Illustrator 25.3.1, SVG Export Plug-In . SVG Version: 6.00 Build 0)  -->
<svg version="1.1" id="layer_1" xmlns="http://www.w3.org/2000/svg" xmlns:xlink="http://www.w3.org/1999/xlink" x="0px" y="0px"
	 viewBox="0 0 1193.2 210" style="enable-background:new 0 0 1193.2 210;" xml:space="preserve">
<style type="text/css">
	.st0{fill:#0052CC;}
	.st1{fill:#2793FF;}
</style>
<path class="st0" d="M105,0C47,0,0,47,0,105s47,105,105,105s105-47,105-105S163,0,105,0z M105,144.4c-21.8,0-39.4-17.6-39.4-39.4
	S83.2,65.6,105,65.6s39.4,17.6,39.4,39.4c0,0,0,0,0,0C144.4,126.7,126.7,144.4,105,144.4z"/>
<path class="st1" d="M189.9,141L189.9,141l-36.4-15.1c5.3-12.9,5.3-27.3,0-40.2l25-10.4l11.3-4.7c4.6,11.2,7,23.1,7,35.2
	C196.8,117.8,194.5,129.8,189.9,141z"/>
<path class="st1" d="M140.2,20.1L140.2,20.1l-15.1,36.4c-12.9-5.3-27.3-5.3-40.2,0l-7.1-17.1l-8-19.3
	C92.3,10.8,117.6,10.8,140.2,20.1L140.2,20.1z"/>
<path class="st1" d="M20.1,69.8l19.3,8l17.1,7.1c-5.3,12.9-5.3,27.3,0,40.2l-36.4,15.2C10.7,117.7,10.7,92.4,20.1,69.8L20.1,69.8z"
	/>
<path class="st1" d="M69.8,189.9l4.7-11.3l10.4-25c12.9,5.3,27.3,5.3,40.2,0l15.1,36.4l0,0c-11.2,4.6-23.1,7-35.2,7
	C92.9,197,81,194.6,69.8,189.9z"/>
<g>
	<path d="M322.1,51.6c7.5,5.5,11.7,14.1,12.7,25.8h-16.2c-1.5-6.9-4.2-12-8.4-15c-4.2-3.1-10.2-4.6-18.3-4.6c-7,0-12.4,1-16.2,3.1
		c-4.6,2.4-6.9,6.3-6.9,11.7c0,4.8,2.5,8.5,7.9,11.4c2.4,1.4,8.5,3.6,18.6,6.6c14.4,4.5,23.8,7.9,28,10.5
		c9.1,5.5,13.8,13.2,13.8,23.1c0,9.6-3.8,17.1-11.2,22.6c-7.5,5.4-18,8.1-31.5,8.1c-13,0-23.2-2.7-30.6-7.8
		c-8.8-6.3-13.6-16.2-14.5-29.7h16.2c1.2,8.4,4.2,14.5,9,18.1c4.3,3.3,10.9,5,19.9,5c8.1,0,14.5-1.5,19.3-4.2s7.2-6.5,7.2-11.2
		c0-6-3.5-10.6-10.2-14.1c-2.4-1.2-9.4-3.6-21.3-7.2c-13.2-4.2-21.3-7-24.6-8.8c-8.2-5-12.3-12.1-12.3-21.4
		c0-9.4,3.9-16.8,11.8-22.2c7.5-5.1,16.9-7.6,28.3-7.6C305.3,43.7,315.1,46.2,322.1,51.6z"/>
	<path d="M366.8,75.3v47.2c0,6.6,1.3,11.4,4.2,14.4c2.7,3,7.2,4.7,13.3,4.7c4.2,0,7.9-1.8,11.5-5.1c3.6-3.5,6.1-8.1,7.5-13.8V75.3
		h15.9v77.5h-15.9v-10.5c-6.6,8.4-14.7,12.6-24.4,12.6c-18.8,0-28-10.5-28-31.3V75.3H366.8z"/>
	<path d="M503.2,85.4c6,7.5,9,17.1,9,29.1c0,11.4-3,20.8-8.8,28.3c-6.3,8.1-15.1,12.2-26.2,12.2c-9.6,0-17.4-4.5-23.7-13.5v41.1
		h-15.9V75.3h14.8v9.3c5.4-7.6,13.5-11.4,24-11.4C487.7,73.2,496.6,77.3,503.2,85.4z M457.9,94.4c-3.3,4.8-4.9,11.2-4.9,19.2v1.3
		c0,8.2,1.9,15,6.1,20.1c3.6,4.6,8.4,7,14.4,7c7.8,0,13.5-2.6,17.2-7.7c3.3-4.8,5.1-11.4,5.1-19.9c0-8.5-1.7-15.1-4.7-19.9
		c-3.8-5.7-9.4-8.4-17.2-8.4C467,86.1,461.6,88.8,457.9,94.4z"/>
	<path d="M592.9,85.4c6,7.5,9,17.1,9,29.1c0,11.4-3,20.8-8.8,28.3c-6.3,8.1-15.1,12.2-26.2,12.2c-9.6,0-17.4-4.5-23.7-13.5v41.1
		h-15.9V75.3H542v9.3c5.4-7.6,13.5-11.4,24-11.4C577.4,73.2,586.3,77.3,592.9,85.4z M547.6,94.4c-3.3,4.8-4.9,11.2-4.9,19.2v1.3
		c0,8.2,2,15,6.1,20.1c3.6,4.6,8.4,7,14.4,7c7.8,0,13.5-2.6,17.2-7.7c3.3-4.8,5.1-11.4,5.1-19.9c0-8.5-1.7-15.1-4.7-19.9
		c-3.8-5.7-9.4-8.4-17.2-8.4C556.7,86.1,551.3,88.8,547.6,94.4z"/>
	<path d="M680.8,84.9c6.9,7.6,10.5,17.4,10.5,29.2c0,11.7-3.5,21.4-10.3,28.9c-7.2,7.8-16.6,11.8-28.3,11.8s-21.1-4-28.3-11.8
		c-6.9-7.5-10.3-17.2-10.3-28.9c0-11.8,3.4-21.6,10.5-29.2c7-7.8,16.5-11.7,28.2-11.7S673.7,77.1,680.8,84.9z M635.5,95
		c-3.6,4.9-5.2,11.4-5.2,19.2s1.7,14.1,5.2,19c4,5.7,9.8,8.7,17.1,8.7s13-3,17.2-8.7c3.6-5.1,5.4-11.4,5.4-19
		c0-7.8-1.8-14.2-5.4-19.2c-4.2-5.9-9.9-8.7-17.2-8.7S639.5,89.1,635.5,95z"/>
	<path d="M752.5,75.2v15.9c-3.9-1.2-7.6-1.6-11.2-1.6c-4.8,0-9.1,1.9-12.9,5.8c-4,4.2-6,9.7-6,16.5v41.1h-15.9V75.3h15.9V87
		c1.9-4.2,4.5-7.3,7.5-9.4c3.6-3,7.8-4.4,12.6-4.4C746.3,73.2,749.8,73.8,752.5,75.2z"/>
	<path d="M785.8,75.3h17.7v13.2h-17.7v45c0,2.1,0.5,3.6,1.3,4.6c0.9,0.9,2.2,1.5,4.2,1.5h10.2v13.2h-12.7c-6.6,0-11.5-1.8-14.5-5.2
		c-3-3.3-4.3-7.9-4.3-14.1v-45h-14.4V75.3h14.4V56.9l15.9-6.6V75.3z"/>
	<path d="M940.4,45.8v13.9H884v31.2h53.2v13.9H884v48h-16.3V45.8H940.4z"/>
	<path d="M971,43.7v109.2h-15.9V43.7H971z"/>
	<path d="M1054.7,84.9c6.9,7.6,10.5,17.4,10.5,29.2c0,11.7-3.5,21.4-10.3,28.9c-7.2,7.8-16.6,11.8-28.3,11.8s-21.1-4-28.3-11.8
		c-6.9-7.5-10.3-17.2-10.3-28.9c0-11.8,3.4-21.6,10.5-29.2c7-7.8,16.5-11.7,28.2-11.7S1047.7,77.1,1054.7,84.9z M1009.4,95
		c-3.6,4.9-5.2,11.4-5.2,19.2s1.7,14.1,5.2,19c4,5.7,9.8,8.7,17.1,8.7s13-3,17.2-8.7c3.6-5.1,5.4-11.4,5.4-19
		c0-7.8-1.8-14.2-5.4-19.2c-4.2-5.9-9.9-8.7-17.2-8.7S1013.5,89.1,1009.4,95z"/>
	<path d="M1089.7,75.3L1106,134l15.9-58.6h14.7l15.9,58.6l16.3-58.6h17.5l-26.2,77.5h-14.7l-16.2-58l-16.2,58h-14.7l-26.2-77.5
		H1089.7z"/>
</g>
</svg>
