<?xml version="1.0" encoding="utf-8"?>
<svg version="1.1" xmlns="http://www.w3.org/2000/svg" xmlns:xlink="http://www.w3.org/1999/xlink"
   x="0px" y="0px" height="32" viewBox="0 0 335.5 60" style="enable-background:new 0 0 335.5 60;" xml:space="preserve">
<style type="text/css">
	.st0{fill:#0052CC;}
	.st1{fill:#2793FF;}
</style>
<path class="st0" d="M30.3,0.6C14.1,0.6,0.9,13.8,0.9,30s13.2,29.4,29.4,29.4S59.7,46.2,59.7,30S46.6,0.6,30.3,0.6z M30.3,41
	c-6.1,0-11-4.9-11-11s4.9-11,11-11s11,4.9,11,11l0,0C41.4,36.1,36.4,41,30.3,41z"/>
<path class="st1" d="M54.1,40.1L54.1,40.1l-10.2-4.2c1.5-3.6,1.5-7.6,0-11.3l7-2.9l3.2-1.3c1.3,3.1,2,6.5,2,9.9
	C56,33.6,55.4,36.9,54.1,40.1z"/>
<path class="st1" d="M40.2,6.2L40.2,6.2L36,16.4c-3.6-1.5-7.6-1.5-11.3,0l-2-4.8l-2.2-5.4C26.8,3.6,33.9,3.6,40.2,6.2L40.2,6.2z"/>
<path class="st1" d="M6.6,20.1l5.4,2.2l4.8,2c-1.5,3.6-1.5,7.6,0,11.3L6.6,39.9C3.9,33.6,3.9,26.5,6.6,20.1L6.6,20.1z"/>
<path class="st1" d="M20.5,53.8l1.3-3.2l2.9-7c3.6,1.5,7.6,1.5,11.3,0l4.2,10.2l0,0c-3.1,1.3-6.5,2-9.9,2
	C26.9,55.8,23.6,55.1,20.5,53.8z"/>
<g>
	<path d="M91.1,15c2.1,1.5,3.3,3.9,3.6,7.2h-4.5c-0.4-1.9-1.2-3.4-2.4-4.2c-1.2-0.9-2.9-1.3-5.1-1.3c-2,0-3.5,0.3-4.5,0.9
		c-1.3,0.7-1.9,1.8-1.9,3.3c0,1.3,0.7,2.4,2.2,3.2c0.7,0.4,2.4,1,5.2,1.8c4,1.3,6.7,2.2,7.8,2.9c2.5,1.5,3.9,3.7,3.9,6.5
		c0,2.7-1.1,4.8-3.1,6.3c-2.1,1.5-5,2.3-8.8,2.3c-3.6,0-6.5-0.8-8.6-2.2c-2.5-1.8-3.8-4.5-4.1-8.3h4.5c0.3,2.4,1.2,4.1,2.5,5.1
		c1.2,0.9,3.1,1.4,5.6,1.4c2.3,0,4.1-0.4,5.4-1.2c1.3-0.8,2-1.8,2-3.1c0-1.7-1-3-2.9-3.9c-0.7-0.3-2.6-1-6-2c-3.7-1.2-6-2-6.9-2.5
		c-2.3-1.4-3.4-3.4-3.4-6c0-2.6,1.1-4.7,3.3-6.2c2.1-1.4,4.7-2.1,7.9-2.1C86.4,12.8,89.2,13.5,91.1,15z"/>
	<path d="M103.6,21.7v13.2c0,1.8,0.4,3.2,1.2,4c0.8,0.8,2,1.3,3.7,1.3c1.2,0,2.2-0.5,3.2-1.4c1-1,1.7-2.3,2.1-3.9V21.7h4.5v21.7
		h-4.5v-2.9c-1.8,2.4-4.1,3.5-6.8,3.5c-5.3,0-7.8-2.9-7.8-8.8V21.7H103.6z"/>
	<path d="M141.8,24.5c1.7,2.1,2.5,4.8,2.5,8.1c0,3.2-0.8,5.8-2.5,7.9c-1.8,2.3-4.2,3.4-7.3,3.4c-2.7,0-4.9-1.3-6.6-3.8v11.5h-4.5
		v-30h4.1v2.6c1.5-2.1,3.8-3.2,6.7-3.2C137.5,21.1,140,22.2,141.8,24.5z M129.1,27c-0.9,1.3-1.4,3.1-1.4,5.4v0.4
		c0,2.3,0.5,4.2,1.7,5.6c1,1.3,2.4,2,4,2c2.2,0,3.8-0.7,4.8-2.2c0.9-1.3,1.4-3.2,1.4-5.6s-0.5-4.2-1.3-5.6c-1.1-1.6-2.6-2.4-4.8-2.4
		C131.7,24.7,130.2,25.5,129.1,27z"/>
	<path d="M166.9,24.5c1.7,2.1,2.5,4.8,2.5,8.1c0,3.2-0.8,5.8-2.5,7.9c-1.8,2.3-4.2,3.4-7.3,3.4c-2.7,0-4.9-1.3-6.6-3.8v11.5h-4.5
		v-30h4.1v2.6c1.5-2.1,3.8-3.2,6.7-3.2C162.6,21.1,165.1,22.2,166.9,24.5z M154.3,27c-0.9,1.3-1.4,3.1-1.4,5.4v0.4
		c0,2.3,0.6,4.2,1.7,5.6c1,1.3,2.4,2,4,2c2.2,0,3.8-0.7,4.8-2.2c0.9-1.3,1.4-3.2,1.4-5.6s-0.5-4.2-1.3-5.6c-1.1-1.6-2.6-2.4-4.8-2.4
		C156.8,24.7,155.3,25.5,154.3,27z"/>
	<path d="M191.5,24.4c1.9,2.1,2.9,4.9,2.9,8.2c0,3.3-1,6-2.9,8.1c-2,2.2-4.6,3.3-7.9,3.3s-5.9-1.1-7.9-3.3c-1.9-2.1-2.9-4.8-2.9-8.1
		c0-3.3,1-6,2.9-8.2c2-2.2,4.6-3.3,7.9-3.3C187,21.1,189.6,22.2,191.5,24.4z M178.9,27.2c-1,1.4-1.5,3.2-1.5,5.4s0.5,3.9,1.5,5.3
		c1.1,1.6,2.7,2.4,4.8,2.4c2,0,3.6-0.8,4.8-2.4c1-1.4,1.5-3.2,1.5-5.3c0-2.2-0.5-4-1.5-5.4c-1.2-1.7-2.8-2.4-4.8-2.4
		C181.6,24.8,180,25.5,178.9,27.2z"/>
	<path d="M211.6,21.7v4.5c-1.1-0.3-2.1-0.4-3.1-0.4c-1.3,0-2.5,0.5-3.6,1.6c-1.1,1.2-1.7,2.7-1.7,4.6v11.5h-4.5V21.7h4.5V25
		c0.5-1.2,1.3-2,2.1-2.6c1-0.8,2.2-1.2,3.5-1.2C209.9,21.1,210.9,21.3,211.6,21.7z"/>
	<path d="M220.9,21.7h5v3.7h-5V38c0,0.6,0.1,1,0.4,1.3c0.3,0.3,0.6,0.4,1.2,0.4h2.9v3.7h-3.6c-1.8,0-3.2-0.5-4.1-1.5
		c-0.8-0.9-1.2-2.2-1.2-3.9V25.4h-4v-3.7h4v-5.2l4.5-1.8L220.9,21.7L220.9,21.7z"/>
	<path d="M264.2,13.4v3.9h-15.8v8.7h14.9v3.9h-14.9v13.4h-4.6v-30H264.2z"/>
	<path d="M272.8,12.8v30.6h-4.5V12.8H272.8z"/>
	<path d="M296.2,24.4c1.9,2.1,2.9,4.9,2.9,8.2c0,3.3-1,6-2.9,8.1c-2,2.2-4.6,3.3-7.9,3.3s-5.9-1.1-7.9-3.3c-1.9-2.1-2.9-4.8-2.9-8.1
		c0-3.3,1-6,2.9-8.2c2-2.2,4.6-3.3,7.9-3.3C291.7,21.1,294.3,22.2,296.2,24.4z M283.6,27.2c-1,1.4-1.5,3.2-1.5,5.4s0.5,3.9,1.5,5.3
		c1.1,1.6,2.7,2.4,4.8,2.4s3.6-0.8,4.8-2.4c1-1.4,1.5-3.2,1.5-5.3c0-2.2-0.5-4-1.5-5.4c-1.2-1.7-2.8-2.4-4.8-2.4
		S284.7,25.5,283.6,27.2z"/>
	<path d="M306,21.7l4.6,16.4l4.5-16.4h4.1l4.5,16.4l4.6-16.4h4.9l-7.3,21.7h-4.1l-4.5-16.2l-4.5,16.2h-4.1l-7.3-21.7L306,21.7
		L306,21.7z"/>
</g>
</svg>
