<?xml version="1.0" encoding="utf-8"?>
<svg version="1.1" xmlns="http://www.w3.org/2000/svg" xmlns:xlink="http://www.w3.org/1999/xlink"
   x="0px" y="0px" height="32" viewBox="0 0 60 60" style="enable-background:new 0 0 60 60;" xml:space="preserve">
<style type="text/css">
	.st0{fill:#0052CC;}
	.st1{fill:#2793FF;}
</style>
<path class="st0" d="M30,1C14,1,1,14,1,30s13,29,29,29s29-13,29-29S46,1,30,1z M30,40.9c-6,0-10.9-4.9-10.9-10.9S24,19.1,30,19.1
	c6,0,10.9,4.9,10.9,10.9c0,0,0,0,0,0C40.9,36,36,40.9,30,40.9z"/>
<path class="st1" d="M53.4,39.7L53.4,39.7l-10.1-4.2c1.5-3.6,1.5-7.5,0-11.1l6.9-2.9l3.1-1.3c1.3,3.1,1.9,6.4,1.9,9.7
	C55.4,33.3,54.7,36.7,53.4,39.7z"/>
<path class="st1" d="M39.7,6.6L39.7,6.6l-4.2,10.1c-3.6-1.5-7.5-1.5-11.1,0l-2-4.7l-2.2-5.3C26.5,4,33.5,4,39.7,6.6L39.7,6.6z"/>
<path class="st1" d="M6.5,20.3l5.3,2.2l4.7,2c-1.5,3.6-1.5,7.5,0,11.1L6.5,39.7C4,33.5,4,26.5,6.5,20.3L6.5,20.3z"/>
<path class="st1" d="M20.3,53.4l1.3-3.1l2.9-6.9c3.6,1.5,7.5,1.5,11.1,0l4.2,10.1l0,0c-3.1,1.3-6.4,1.9-9.7,1.9
	C26.7,55.4,23.4,54.7,20.3,53.4z"/>
</svg>
