<?xml version="1.0" encoding="utf-8"?>
<svg version="1.1" xmlns="http://www.w3.org/2000/svg" xmlns:xlink="http://www.w3.org/1999/xlink"
	x="0px" y="0px" height="32" viewBox="0 0 106 32" style="enable-background:new 0 0 106 32;" xml:space="preserve">
<style type="text/css">
	.st0{fill:#0052CC;}
	.st1{fill:#2793FF;}
</style>
<path class="st0" d="M18.5,0.3C9.9,0.3,2.8,7.4,2.8,16s7,15.7,15.7,15.7s15.7-7,15.7-15.7S27.2,0.3,18.5,0.3z M18.5,21.9
	c-3.3,0-5.9-2.6-5.9-5.9s2.6-5.9,5.9-5.9s5.9,2.6,5.9,5.9l0,0C24.4,19.3,21.8,21.9,18.5,21.9z"/>
<path class="st1" d="M31.2,21.4L31.2,21.4l-5.4-2.2c0.8-1.9,0.8-4.1,0-6l3.7-1.5l1.7-0.7c0.7,1.7,1.1,3.5,1.1,5.3
	C32.2,17.9,31.9,19.7,31.2,21.4z"/>
<path class="st1" d="M23.8,3.3L23.8,3.3l-2.2,5.4c-1.9-0.8-4.1-0.8-6,0l-1.1-2.6l-1.2-2.9C16.7,1.9,20.4,1.9,23.8,3.3L23.8,3.3z"/>
<path class="st1" d="M5.9,10.7l2.9,1.2l2.6,1.1c-0.8,1.9-0.8,4.1,0,6l-5.4,2.3C4.4,17.9,4.4,14.1,5.9,10.7L5.9,10.7z"/>
<path class="st1" d="M13.3,28.7L14,27l1.5-3.7c1.9,0.8,4.1,0.8,6,0l2.2,5.4l0,0c-1.7,0.7-3.5,1.1-5.3,1.1
	C16.7,29.8,15,29.4,13.3,28.7z"/>
<g>
	<path d="M55.6,9c1.1,0.8,1.7,2.1,1.9,3.8H55c-0.2-1-0.6-1.7-1.2-2.1c-0.6-0.4-1.5-0.6-2.6-0.6c-1,0-1.7,0.1-2.3,0.4
		c-0.7,0.3-1,0.9-1,1.6c0,0.7,0.4,1.2,1.1,1.6c0.3,0.2,1.2,0.5,2.7,1c2.1,0.7,3.5,1.2,4.1,1.5c1.4,0.8,2,1.9,2,3.4
		c0,1.4-0.5,2.5-1.6,3.3c-1.1,0.8-2.7,1.2-4.7,1.2c-1.9,0-3.5-0.4-4.5-1.1c-1.3-0.9-2-2.4-2.2-4.4h2.6c0.2,1.2,0.6,2,1.3,2.6
		c0.6,0.4,1.6,0.7,2.9,0.7c1.1,0,2.1-0.2,2.7-0.6c0.7-0.4,1-0.9,1-1.6c0-0.8-0.5-1.5-1.5-2c-0.3-0.2-1.3-0.5-3.1-1
		c-1.9-0.6-3.1-1.1-3.6-1.3c-1.2-0.7-1.8-1.8-1.8-3.2s0.6-2.5,1.8-3.3c1.1-0.8,2.5-1.1,4.2-1.1C53.1,7.8,54.6,8.2,55.6,9z"/>
	<path d="M70.7,8.1v15.7h-2.5V10.3h-3.5c-0.3,0-0.6,0.1-0.7,0.3c-0.2,0.2-0.2,0.4-0.2,0.8v1.1h2.9v2h-2.9v9.3h-2.5v-9.3h-2.5v-2h2.5
		v-1.2c0-1,0.3-1.7,0.8-2.3c0.5-0.6,1.3-0.8,2.3-0.8H70.7z"/>
	<path d="M82.9,13.9c1,1.1,1.6,2.6,1.6,4.3c0,1.7-0.5,3.2-1.5,4.3c-1.1,1.1-2.5,1.7-4.2,1.7c-1.7,0-3.1-0.6-4.2-1.7
		c-1-1.1-1.5-2.5-1.5-4.3c0-1.8,0.5-3.2,1.6-4.3c1-1.1,2.4-1.7,4.2-1.7C80.5,12.2,81.9,12.7,82.9,13.9z M76.4,15.4
		c-0.5,0.7-0.7,1.6-0.7,2.7c0,1.1,0.2,2,0.7,2.7c0.6,0.8,1.4,1.2,2.4,1.2c1,0,1.8-0.4,2.4-1.2c0.5-0.7,0.7-1.6,0.7-2.7
		c0-1.1-0.3-2-0.7-2.7c-0.6-0.8-1.4-1.2-2.4-1.2C77.7,14.2,76.9,14.6,76.4,15.4z"/>
	<path d="M88.3,12.5l2.3,8.4l2.2-8.4h2.3l2.2,8.4l2.3-8.4h2.8l-3.8,11.4h-2.3l-2.3-8.3l-2.3,8.3h-2.3l-3.8-11.4H88.3z"/>
</g>
</svg>
